<?xml version="1.0" encoding="UTF-8" standalone="no"?>
<svg
   width="564.3609mm"
   height="65.328148mm"
   viewBox="0 0 564.3609 65.328148"
   version="1.1"
   id="svg8"
   inkscape:version="1.1.2 (0a00cf5339, 2022-02-04)"
   sodipodi:docname="logo_lineal.svg"
   xmlns:inkscape="http://www.inkscape.org/namespaces/inkscape"
   xmlns:sodipodi="http://sodipodi.sourceforge.net/DTD/sodipodi-0.dtd"
   xmlns="http://www.w3.org/2000/svg"
   xmlns:svg="http://www.w3.org/2000/svg"
   xmlns:rdf="http://www.w3.org/1999/02/22-rdf-syntax-ns#"
   xmlns:cc="http://creativecommons.org/ns#"
   xmlns:dc="http://purl.org/dc/elements/1.1/">
  <defs
     id="defs2">
    <rect
       x="26.994223"
       y="21.114292"
       width="127.75483"
       height="34.745041"
       id="rect988" />
  </defs>
  <sodipodi:namedview
     id="base"
     pagecolor="#ffffff"
     bordercolor="#666666"
     borderopacity="1.0"
     inkscape:pageopacity="0.0"
     inkscape:pageshadow="2"
     inkscape:zoom="0.7"
     inkscape:cx="1217.1429"
     inkscape:cy="42.142857"
     inkscape:document-units="mm"
     inkscape:current-layer="layer2"
     inkscape:document-rotation="0"
     showgrid="false"
     fit-margin-top="0"
     fit-margin-left="0"
     fit-margin-right="0"
     fit-margin-bottom="0"
     inkscape:window-width="3840"
     inkscape:window-height="2089"
     inkscape:window-x="0"
     inkscape:window-y="34"
     inkscape:window-maximized="1"
     inkscape:pagecheckerboard="0" />
  <metadata
     id="metadata5">
    <rdf:RDF>
      <cc:Work
         rdf:about="">
        <dc:format>image/svg+xml</dc:format>
        <dc:type
           rdf:resource="http://purl.org/dc/dcmitype/StillImage" />
        <dc:title />
      </cc:Work>
    </rdf:RDF>
  </metadata>
  <g
     inkscape:groupmode="layer"
     id="layer2"
     inkscape:label="Capa 2"
     transform="translate(116.17872,-52.122912)">
    <path
       style="fill:#ffffff;stroke-width:0.264583;fill-opacity:1"
       d="m -91.186757,117.0617 c -8.808706,-1.65536 -15.432073,-5.88776 -19.996223,-12.7778 -1.95361,-2.94915 -3.09513,-5.585033 -4.14148,-9.563069 -0.89973,-3.420573 -1.13343,-10.035278 -0.48609,-13.758333 1.17606,-6.763906 4.05821,-12.353544 8.6845,-16.842745 4.31004,-4.182325 8.899,-6.54152 15.410126,-7.92239 2.928493,-0.62107 9.900486,-0.612757 13.49375,0.01609 3.071791,0.537584 6.318009,1.50996 8.202083,2.45686 1.657228,0.832893 4.877321,3.040141 5.677008,3.891368 0.722622,0.769194 0.819529,0.610899 -2.650553,4.329676 l -2.253758,2.415283 -1.444683,-1.197676 c -5.551006,-4.601925 -14.381927,-6.261777 -21.581435,-4.056431 -7.175386,2.197957 -12.753248,8.088378 -14.634688,15.454756 -1.72215,6.742732 -1.05232,13.190784 1.95843,18.852533 2.0687,3.890228 5.33371,7.080158 9.39231,9.176348 3.378685,1.74502 5.570284,2.29417 9.805818,2.45703 5.328037,0.20488 9.426088,-0.43385 13.42018,-2.09169 l 1.921963,-0.79776 -0.06988,-8.241976 -0.06988,-8.241985 -6.416145,-0.07085 -6.416146,-0.07085 v -3.702534 -3.702532 l 10.384896,0.06921 10.384895,0.06922 V 97.741182 112.2709 l -1.719791,0.88481 c -2.273168,1.1695 -6.580735,2.5527 -10.619902,3.41013 -2.769584,0.58792 -4.101779,0.70957 -8.694681,0.79397 -4.065522,0.0747 -5.95408,4e-5 -7.540624,-0.29811 z m 227.781967,0.0205 c -3.7737,-0.82106 -7.20477,-2.65343 -9.56171,-5.10642 -1.57752,-1.64181 -3.26993,-4.81528 -3.90513,-7.32256 -0.51046,-2.01494 -0.51321,-5.945114 -0.005,-7.894292 1.2284,-4.716147 4.96764,-8.880506 10.89492,-12.133585 l 1.92312,-1.05547 -1.73629,-2.031312 c -4.17712,-4.886865 -5.6794,-9.218737 -4.86712,-14.034458 0.63391,-3.758297 2.94152,-7.033135 6.42654,-9.120226 4.59207,-2.75008 12.55008,-2.900117 17.60605,-0.331937 3.80426,1.93237 6.19705,5.616179 6.579,10.128729 0.50191,5.92958 -2.71052,10.827189 -9.93174,15.141803 l -2.21261,1.321998 5.28812,5.501182 c 5.59716,5.822693 6.36355,6.577179 6.50457,6.403554 0.0485,-0.05974 0.85802,-1.358778 1.79888,-2.886747 0.94086,-1.527968 2.5754,-4.177109 3.6323,-5.886979 l 1.92167,-3.108854 h 4.34763 c 2.3912,0 4.34764,0.1 4.34764,0.222224 0,0.217445 -1.17899,2.077484 -7.87331,12.42151 l -3.30256,5.1031 5.14599,5.21564 c 5.68851,5.76549 7.88196,8.08922 7.88196,8.35006 0,0.0951 -2.2992,0.17288 -5.10934,0.17288 h -5.10934 l -3.62424,-3.93598 -3.62423,-3.93598 -2.0482,2.11222 c -3.4984,3.60775 -7.07924,5.75566 -11.09625,6.65589 -2.3286,0.52184 -7.96308,0.54047 -10.29081,0.034 z m 9.98473,-7.25756 c 2.2111,-0.84247 4.61063,-2.49627 6.80485,-4.69004 l 1.94866,-1.94823 -4.59449,-4.772116 c -2.52696,-2.624669 -5.74308,-5.987941 -7.14693,-7.473939 l -2.55249,-2.701814 -0.88709,0.501658 c -4.60915,2.606458 -7.6282,5.556369 -8.56109,8.365048 -0.94267,2.838098 -0.35554,6.449563 1.45482,8.948683 1.11033,1.53278 3.49353,3.23566 5.5255,3.94817 2.23418,0.78343 5.68729,0.70692 8.00826,-0.17742 z m 0.22601,-32.309513 c 4.13393,-2.785359 5.89153,-6.178449 5.03968,-9.72929 -0.70451,-2.936711 -3.31229,-4.658524 -7.04961,-4.654544 -1.79692,0.0019 -2.38181,0.119499 -3.6286,0.729501 -1.9482,0.953161 -3.47697,2.694712 -3.89496,4.437065 -0.75648,3.153383 0.60928,6.315138 4.46847,10.344562 l 1.19893,1.251831 1.20544,-0.699317 c 0.663,-0.384625 1.86029,-1.14054 2.66065,-1.679808 z M -40.638843,116.92921 c -4.164075,-0.64071 -7.472568,-2.5688 -9.278707,-5.40734 -1.407178,-2.21154 -1.78636,-3.76759 -1.671859,-6.86081 0.09247,-2.49804 0.178601,-2.8706 1.089895,-4.714476 1.220211,-2.468927 3.040285,-4.212534 5.804056,-5.560208 3.807058,-1.856404 7.279288,-2.489959 15.288908,-2.789676 l 4.894792,-0.183161 -0.07081,-1.5875 c -0.153496,-3.441128 -1.680536,-5.813398 -4.698487,-7.299129 -1.400215,-0.689324 -2.106822,-0.858541 -4.020968,-0.962935 -3.831881,-0.208981 -7.01739,0.820256 -10.390076,3.357025 l -1.453264,1.093073 -2.250903,-2.291953 -2.250906,-2.291953 1.148752,-0.989557 c 1.632956,-1.406663 4.808096,-3.027873 7.582498,-3.871582 2.176584,-0.661908 2.767838,-0.725942 6.879167,-0.745027 5.002739,-0.02323 6.606937,0.265523 9.611677,1.730042 2.065899,1.006922 4.493636,3.33462 5.453457,5.228738 1.363877,2.691479 1.443466,3.712834 1.485852,19.067919 l 0.03911,14.16908 -2.981078,0.0752 c -1.639594,0.0414 -3.078102,-0.0218 -3.196688,-0.14038 -0.118587,-0.11859 -0.295349,-1.43236 -0.392806,-2.9195 -0.09746,-1.48713 -0.258241,-2.70388 -0.357299,-2.70388 -0.09906,0 -0.345556,0.30916 -0.54778,0.68702 -1.094732,2.04552 -5.042961,4.6915 -8.202215,5.49686 -1.998723,0.50952 -5.6032,0.70815 -7.514318,0.41409 z m 7.859969,-6.10113 c 3.306607,-0.66406 6.15436,-3.08112 7.33628,-6.22674 0.608822,-1.62035 1.246917,-6.374095 0.957006,-7.129592 -0.151723,-0.395388 -0.655249,-0.424719 -4.992249,-0.290824 -5.397984,0.16665 -7.887435,0.594137 -10.512046,1.805119 -3.043277,1.404147 -4.217104,3.055067 -4.227523,5.945777 -0.01058,2.93708 1.649759,4.95241 4.75669,5.77368 1.773806,0.46888 4.690998,0.5224 6.681842,0.12258 z m 62.957802,6.07833 c -5.997966,-0.85955 -10.256361,-4.70282 -10.846538,-9.78919 -0.775491,-6.68347 2.385962,-11.370031 9.267989,-13.73893 3.107192,-1.069544 6.377662,-1.526633 12.406132,-1.733915 l 5.257771,-0.180782 v -1.768705 c 0,-1.441895 -0.148952,-2.066788 -0.80614,-3.381933 -1.499034,-2.999833 -4.061989,-4.542568 -7.89345,-4.751351 -3.770288,-0.205451 -6.662671,0.714889 -10.259136,3.264403 l -1.628519,1.154448 -2.075648,-2.128258 c -1.141606,-1.170543 -2.10575,-2.269818 -2.142537,-2.442834 -0.196178,-0.922586 5.932834,-4.235066 9.459597,-5.112528 2.754704,-0.685371 9.677424,-0.682045 12.170833,0.0058 6.012577,1.658776 9.343567,5.272878 10.058749,10.913676 0.135499,1.068689 0.255977,7.986651 0.267729,15.373239 l 0.02138,13.43018 -3.151767,0.074 -3.151767,0.074 -0.167775,-1.39691 c -0.09228,-0.76829 -0.168809,-2.08151 -0.170074,-2.91825 -0.0013,-0.83675 -0.0916,-1.51311 -0.200737,-1.50304 -0.10914,0.0101 -0.77697,0.73545 -1.484066,1.61193 -2.226371,2.75969 -5.479211,4.4291 -9.694579,4.97541 -2.301918,0.29832 -2.970091,0.29443 -5.237438,-0.0305 z m 8.232627,-6.17703 c 3.267667,-0.85112 5.249804,-2.51778 6.766824,-5.6898 0.88573,-1.85202 0.955577,-2.18544 1.047224,-4.99881 l 0.09819,-3.014434 -4.990695,0.151826 c -8.34863,0.253976 -12.469907,1.718868 -14.160865,5.033418 -1.002321,1.9647 -0.5691,5.1631 0.91457,6.75213 1.765287,1.89064 6.642637,2.72474 10.324748,1.76567 z m 34.221239,6.19875 c -2.514007,-0.34689 -5.594754,-1.42153 -7.306209,-2.54859 -1.514552,-0.99739 -4.25351,-3.69318 -4.234569,-4.16783 0.0061,-0.15254 1.209275,-1.26108 2.673752,-2.46342 l 2.662685,-2.18608 0.964268,0.8122 c 3.503862,2.95131 5.727698,3.80158 9.542164,3.64837 2.129676,-0.0855 2.80303,-0.22521 4.066976,-0.8436 2.125271,-1.0398 2.965545,-2.21274 2.965545,-4.1396 0,-1.22545 -0.131987,-1.66945 -0.728916,-2.45206 -1.006576,-1.31969 -3.442121,-2.44226 -6.989884,-3.221728 -7.528922,-1.654154 -11.04387,-3.58616 -12.714846,-6.98877 -0.677322,-1.379233 -0.73302,-1.733897 -0.73302,-4.667649 0,-2.901019 0.062,-3.307321 0.718479,-4.708396 1.553779,-3.316115 5.34729,-6.026771 9.741871,-6.961065 4.435424,-0.942975 10.532774,-0.0517 13.74418,2.00906 1.434394,0.920449 4.056935,3.622958 3.846375,3.963657 -0.19425,0.314306 -5.358762,4.241535 -5.57784,4.241535 -0.103888,0 -0.717132,-0.486918 -1.36276,-1.082037 -0.645631,-0.595122 -1.84957,-1.398794 -2.675422,-1.785938 -1.312296,-0.61518 -1.835028,-0.703873 -4.147383,-0.703696 -2.382798,1.83e-4 -2.784875,0.07344 -4.044434,0.736896 -1.695408,0.893027 -2.435879,1.996049 -2.435879,3.628525 0,2.965246 2.185332,4.467077 8.447487,5.805382 8.935178,1.909566 12.524521,4.96634 12.911401,10.995654 0.23504,3.66287 -0.86772,6.67952 -3.309132,9.0523 -1.43741,1.397 -4.803378,3.05278 -7.348132,3.61468 -2.433532,0.53734 -6.403155,0.72592 -8.676757,0.4122 z m 192.881246,-0.0172 c -4.2372,-0.54444 -8.23214,-2.46394 -11.15499,-5.35979 -2.89396,-2.86721 -4.79195,-6.53628 -5.60755,-10.84011 -0.54806,-2.892027 -0.3428,-7.754894 0.44238,-10.480896 1.97969,-6.873073 7.17264,-12.074784 13.89645,-13.919912 2.40924,-0.661138 7.52535,-0.79453 10.21879,-0.266435 6.73092,1.319712 11.88839,6.386518 13.75949,13.517647 0.38383,1.462788 0.59733,3.281389 0.69115,5.886979 l 0.13575,3.770312 h -15.81287 -15.8129 l 0.16092,1.358605 c 0.81438,6.87631 9.53124,11.77026 16.90692,9.49215 1.96671,-0.60746 3.39583,-1.55407 5.62774,-3.72776 l 1.5875,-1.54606 2.69825,2.04017 c 1.48405,1.1221 2.70444,2.15879 2.71198,2.30375 0.008,0.14496 -0.91117,1.15913 -2.0416,2.25371 -3.28282,3.17868 -7.30846,4.98492 -12.36446,5.5477 -2.70309,0.30088 -3.49813,0.29692 -6.04295,-0.0301 z m 14.37733,-24.780374 c 0,-1.424006 -0.69205,-3.898169 -1.51149,-5.403754 -1.76435,-3.241654 -5.52781,-5.247074 -9.81247,-5.228699 -3.21196,0.01378 -5.87097,1.118413 -8.41047,3.493998 -1.97405,1.846635 -3.46532,4.550489 -3.72398,6.752137 l -0.16322,1.389063 h 11.81081 11.81082 z m 75.00937,24.788654 c -1.98543,-0.28344 -3.64749,-0.8948 -5.07566,-1.86698 -1.36491,-0.92914 -2.07531,-1.90403 -2.81768,-3.86669 -0.55282,-1.46161 -0.57806,-1.98863 -0.70562,-14.744948 l -0.13229,-13.229166 -4.30757,-0.07274 -4.30758,-0.07274 0.0742,-3.234552 0.0742,-3.234552 4.23334,-0.132292 4.23333,-0.132292 0.0716,-5.365241 0.0716,-5.365245 3.63252,0.07358 3.63251,0.07357 0.0716,5.352238 0.0716,5.352238 5.22005,0.07172 5.22007,0.07172 0.0743,3.241146 0.0743,3.241145 h -5.31032 -5.3103 l 0.0766,11.583175 0.0766,11.583176 0.66794,1.29736 c 0.4899,0.95151 0.98364,1.46648 1.85208,1.93173 1.07188,0.57423 1.43497,0.62482 3.82998,0.5336 1.83599,-0.0699 2.90904,-0.24044 3.50573,-0.55711 l 0.85989,-0.45635 v 3.42511 3.42512 l -1.25677,0.41347 c -2.58074,0.84907 -5.48277,1.07735 -8.40052,0.6608 z m 33.88275,-0.0112 c -2.30179,-0.29514 -5.77561,-1.47994 -7.75134,-2.64371 -2.5355,-1.4935 -5.32463,-4.49377 -6.74769,-7.25844 -1.97461,-3.83624 -2.44065,-5.8584 -2.43491,-10.565283 0.006,-4.516064 0.3238,-6.070655 1.95022,-9.525 1.96905,-4.182131 4.85979,-7.156166 8.88222,-9.138213 2.92111,-1.439365 4.76515,-1.881018 8.499,-2.035506 9.73079,-0.402608 16.33394,4.224555 19.04267,13.344205 0.5584,1.879999 0.71837,3.077678 0.83211,6.230035 l 0.14084,3.902604 h -15.81552 -15.81552 l 0.16092,1.358598 c 0.65873,5.56205 6.50793,10.01848 13.14952,10.01848 3.66795,0 6.07735,-1.05577 9.12556,-3.99872 l 1.85709,-1.79295 2.70166,2.03594 c 1.48592,1.11977 2.70407,2.15454 2.707,2.29951 0.003,0.14496 -0.91961,1.15913 -2.05004,2.25371 -4.58473,4.43931 -11.25593,6.4351 -18.43379,5.51474 z M 403.1872,92.130586 c 0,-1.352015 -0.64871,-3.755686 -1.42933,-5.296177 -1.19936,-2.366844 -4.04334,-4.421262 -6.98421,-5.045252 -4.26326,-0.904566 -8.08617,0.177035 -11.32089,3.202974 -1.95987,1.833359 -3.42982,4.509465 -3.70885,6.752137 l -0.17282,1.389063 h 11.80806 11.80804 z m 25.45826,24.786464 c -4.58952,-0.61546 -8.4079,-2.63774 -10.88438,-5.76452 l -0.80859,-1.02095 2.7713,-2.28305 2.77127,-2.28305 1.65701,1.35488 c 2.63927,2.15804 4.61859,2.97352 7.52731,3.10123 5.71418,0.2509 9.38911,-2.45914 8.2935,-6.11594 -0.65355,-2.18135 -2.4924,-3.29137 -7.35605,-4.440457 -6.17109,-1.457986 -8.98517,-2.61294 -11.08697,-4.55032 -3.90295,-3.5976 -3.87781,-10.524002 0.0534,-14.7268 2.73146,-2.920116 6.02906,-4.239003 11.10499,-4.441439 5.53995,-0.22094 9.62633,1.130118 12.5953,4.164338 0.85794,0.876795 1.55991,1.745417 1.55991,1.930265 0,0.275045 -3.98849,3.51609 -5.23727,4.25581 -0.21918,0.129828 -0.77372,-0.194662 -1.54035,-0.901306 -3.29862,-3.040557 -9.06211,-3.543654 -12.06752,-1.053378 -2.60186,2.15592 -1.61567,5.663872 2.04775,7.284014 0.73353,0.324397 2.81871,0.914331 4.63375,1.310965 5.39533,1.179015 8.23677,2.337872 10.22427,4.169878 4.50739,4.15478 4.34398,11.64531 -0.35095,16.08556 -3.25834,3.08162 -9.92587,4.72643 -15.90767,3.92427 z M -3.5582561,115.98301 c -0.1010417,-0.10104 -0.1837108,-7.54272 -0.1837108,-16.537057 V 83.092602 l -4.1671874,-0.07287 -4.1671877,-0.07286 v -3.175 -3.175 l 4.1010419,-0.04584 4.1010416,-0.04584 0.1743869,-6.701036 c 0.1881928,-7.231621 0.516628,-9.311607 1.902026,-12.045555 0.7869952,-1.553063 2.54033383,-3.366419 3.9506918,-4.085931 1.830269,-0.933732 4.853297,-1.549758 7.605146,-1.549758 2.1954568,0 5.1823248,0.337841 5.4623208,0.617836 0.09652,0.09652 -0.70924,6.083765 -0.8362,6.213382 -0.04544,0.04639 -0.77098,-0.04291 -1.612315,-0.198437 -3.5249618,-0.651625 -6.0460358,-0.0548 -7.4190968,1.756365 -1.214146,1.60154 -1.421752,3.043296 -1.421752,9.873573 v 6.06584 l 4.29948,0.0727 4.2994788,0.0727 0.07424,3.234711 0.07424,3.234711 -4.4398638,0.07258 -4.439862,0.07258 -0.132292,16.404166 -0.132292,16.404161 -3.45430947,0.0735 c -1.89987233,0.0404 -3.53698173,-0.009 -3.63802083,-0.11024 z M 209.5122,86.652942 V 57.149998 h 3.96875 3.96875 v 25.796875 25.796867 h 13.50121 13.50121 l -0.0736,3.63802 -0.0736,3.63802 -17.39636,0.068 -17.39635,0.068 z m 87.57708,9.795147 V 76.729164 h 3.69549 3.69552 l 0.0748,2.954785 0.0748,2.954785 0.8309,-1.338205 c 0.86926,-1.400029 2.90663,-3.181842 4.6623,-4.077517 1.79355,-0.915014 4.85992,-1.552477 7.44757,-1.54827 7.25802,0.0118 12.00465,3.548435 13.84384,10.314839 0.41963,1.543846 0.46747,3.167959 0.46747,15.874999 v 14.1552 l -3.63802,0.0736 -3.63802,0.0736 -0.008,-11.71528 c -0.005,-6.443399 -0.12235,-12.594921 -0.26191,-13.670045 -0.66353,-5.111517 -3.53722,-7.928509 -8.3456,-8.180882 -5.21176,-0.273547 -9.09748,2.370487 -10.7538,7.317398 -0.56557,1.689217 -0.59492,2.248877 -0.7302,13.930749 l -0.14094,12.17083 -3.63802,0.0736 -3.63802,0.0736 V 96.448089 Z"
       id="path1006" />
  </g>
</svg>
